<svg xmlns="http://www.w3.org/2000/svg" width="41" height="41" viewBox="0 0 41 40"><defs><style>.cls-1{fill:#FFFFFF;}</style></defs>
  <g id="Isolation_Mode" data-name="Isolation Mode">
    <path class="cls-1" d="M37.09,18.28c0-.11,0-.22,0-.32s0-.07,0-.11,0-.22,0-.33,0-.11,0-.16,0-.11,0-.16,0-.21,0-.32a16.19,16.19,0,0,0-.25-1.7A18.38,18.38,0,0,0,1,13.87l-.09.37c-.07.27-.14.56-.2.84a18.39,18.39,0,0,0,18,22.11,18.16,18.16,0,0,0,7.19-1.47H26l6,2.34.29.11,0,0h0c.61.19.81,0,.49-.56h0l0,0-.05-.08h0l0,0-.61-.82-2.31-3.09-.08-.11L27.9,31l-2-2.67-.77-1h0a2,2,0,0,0-1.66-.9h-.23l-.12,0h0l-.08,0a2,2,0,0,0-.63.26,10.36,10.36,0,0,1-2.65.83,9.28,9.28,0,0,1-1.06.06,8.93,8.93,0,0,1-6.16-2.45l-.15-.15c-.06-.05-.11-.11-.16-.16l-.15-.17a3.47,3.47,0,0,1-.25-.29,8.91,8.91,0,1,1,15.59-7.54s0,.07,0,.13,0,.13,0,.15a8.07,8.07,0,0,1,.14,1.48v.14a8.43,8.43,0,0,1-.16,1.6h0l3,.62a11.65,11.65,0,0,1-.66,2.2L27,22.05l-.06.17h0a9.05,9.05,0,0,1-.75,1.41h0v0a9.41,9.41,0,0,1-1,1.3h0a.08.08,0,0,1,0,0l2.17,2.15,0,0h0a11.61,11.61,0,0,0,1.44-1.77l2.74,1.85a15.33,15.33,0,0,1-1.83,2.26l.08.09s0,0,0,0l2.1,2.07h0l0,0a18.05,18.05,0,0,0,2.2-2.72L31.5,27.21a14.73,14.73,0,0,0,1.43-2.69l2.84,1.18a18.4,18.4,0,0,0,1-3.37,17.93,17.93,0,0,0,.32-2.65c0-.12,0-.25,0-.38s0-.32,0-.47,0-.23,0-.34Zm-3.32,3.43L30.53,21a12.56,12.56,0,0,0,.22-2.31v-.07h3.31v.09A15.37,15.37,0,0,1,33.77,21.71Z" transform="translate(-0.36 -0.46)"/>
    </g>
</svg>
