<svg xmlns="http://www.w3.org/2000/svg" width="199.28" height="41.07" viewBox="0 0 199.28 41.07"><defs><style>.cls-1{fill:#fff;}</style></defs><g id="Isolation_Mode" data-name="Isolation Mode"><path class="cls-1" d="M192.77,39.25H114a6.88,6.88,0,0,1-6.88-6.87V17.92A6.89,6.89,0,0,1,114,11h78.77a6.88,6.88,0,0,1,6.87,6.88V32.38A6.88,6.88,0,0,1,192.77,39.25ZM114,11.53a6.39,6.39,0,0,0-6.39,6.39V32.38A6.4,6.4,0,0,0,114,38.77h78.77a6.39,6.39,0,0,0,6.38-6.39V17.92a6.39,6.39,0,0,0-6.38-6.39Z" transform="translate(-0.36 -0.46)"/><path class="cls-1" d="M119,25.64A8.66,8.66,0,0,1,115.54,24a3.21,3.21,0,0,1-1.09-2.47,3.42,3.42,0,0,1,1.33-2.76,5.28,5.28,0,0,1,3.47-1.09,5.86,5.86,0,0,1,2.59.56,4.23,4.23,0,0,1,1.76,1.55,4,4,0,0,1,.63,2.16h-1.87a2.54,2.54,0,0,0-.82-2,3.3,3.3,0,0,0-2.29-.74,3.36,3.36,0,0,0-2.15.61,2,2,0,0,0-.77,1.68,1.79,1.79,0,0,0,.73,1.46,7.16,7.16,0,0,0,2.49,1.1,11.43,11.43,0,0,1,2.75,1.09,4.07,4.07,0,0,1,1.48,1.39,3.54,3.54,0,0,1,.48,1.87,3.32,3.32,0,0,1-1.34,2.75,5.75,5.75,0,0,1-3.58,1,6.64,6.64,0,0,1-2.71-.56A4.49,4.49,0,0,1,114.69,30a3.67,3.67,0,0,1-.69-2.2h1.87a2.45,2.45,0,0,0,.95,2,4,4,0,0,0,2.52.74,3.66,3.66,0,0,0,2.26-.6,2,2,0,0,0,.79-1.64,2,2,0,0,0-.73-1.61A8.63,8.63,0,0,0,119,25.64Z" transform="translate(-0.36 -0.46)"/><path class="cls-1" d="M129,17.82l4.62,11.52,4.61-11.52h2.41V31.93h-1.86V26.44l.18-5.93-4.63,11.42h-1.43l-4.62-11.39.18,5.9v5.49h-1.86V17.82Z" transform="translate(-0.36 -0.46)"/><path class="cls-1" d="M148.13,25.64A8.64,8.64,0,0,1,144.64,24a3.25,3.25,0,0,1-1.09-2.47,3.43,3.43,0,0,1,1.34-2.76,5.25,5.25,0,0,1,3.46-1.09,5.83,5.83,0,0,1,2.59.56,4.32,4.32,0,0,1,1.77,1.55,4,4,0,0,1,.62,2.16h-1.87a2.56,2.56,0,0,0-.81-2,3.31,3.31,0,0,0-2.3-.74,3.37,3.37,0,0,0-2.15.61,2,2,0,0,0-.77,1.68,1.8,1.8,0,0,0,.74,1.46,7,7,0,0,0,2.49,1.1,11.43,11.43,0,0,1,2.75,1.09,4.12,4.12,0,0,1,1.47,1.39,3.54,3.54,0,0,1,.48,1.87A3.29,3.29,0,0,1,152,31.1a5.74,5.74,0,0,1-3.57,1,6.69,6.69,0,0,1-2.72-.56A4.55,4.55,0,0,1,143.79,30a3.73,3.73,0,0,1-.68-2.2H145a2.44,2.44,0,0,0,.94,2,4,4,0,0,0,2.53.74,3.69,3.69,0,0,0,2.26-.6,2,2,0,0,0,.78-1.64,1.94,1.94,0,0,0-.72-1.61A8.74,8.74,0,0,0,148.13,25.64Z" transform="translate(-0.36 -0.46)"/><path class="cls-1" d="M168.45,28.24h-5.91l-1.33,3.69h-1.92l5.39-14.11h1.63l5.4,14.11H169.8Zm-5.35-1.52h4.8l-2.4-6.6Z" transform="translate(-0.36 -0.46)"/><path class="cls-1" d="M182.19,26.81a6.31,6.31,0,0,1-1.1,3.86,3.52,3.52,0,0,1-3,1.46,3.87,3.87,0,0,1-3-1.21v5h-1.79V21.45H175l.08,1.16a3.72,3.72,0,0,1,3-1.36,3.59,3.59,0,0,1,3,1.43,6.36,6.36,0,0,1,1.1,4Zm-1.8-.21a4.67,4.67,0,0,0-.75-2.8,2.46,2.46,0,0,0-2.08-1,2.64,2.64,0,0,0-2.44,1.44v5a2.65,2.65,0,0,0,2.46,1.44,2.42,2.42,0,0,0,2-1A5,5,0,0,0,180.39,26.6Z" transform="translate(-0.36 -0.46)"/><path class="cls-1" d="M193.32,26.81a6.31,6.31,0,0,1-1.09,3.86,3.53,3.53,0,0,1-3,1.46,3.86,3.86,0,0,1-3-1.21v5h-1.8V21.45h1.64l.09,1.16a3.7,3.7,0,0,1,3-1.36,3.58,3.58,0,0,1,3,1.43,6.3,6.3,0,0,1,1.1,4Zm-1.79-.21a4.6,4.6,0,0,0-.76-2.8,2.43,2.43,0,0,0-2.07-1,2.63,2.63,0,0,0-2.44,1.44v5a2.63,2.63,0,0,0,2.46,1.44,2.44,2.44,0,0,0,2.05-1A5,5,0,0,0,191.53,26.6Z" transform="translate(-0.36 -0.46)"/><path class="cls-1" d="M58.56,8a10,10,0,0,0-7-2.38c-1.6,0-4.62.06-9.05.16l-.28.28V32.87a15.21,15.21,0,0,0,3,.24,15.83,15.83,0,0,0,3-.24V24.25h3.28a9.84,9.84,0,0,0,6.94-2.41q2.64-2.41,2.64-6.94T58.56,8Zm-3.82,9.09a3.58,3.58,0,0,1-1.19,1.76,3.65,3.65,0,0,1-2.51.82q-1.57,0-2.73,0V10.25c.74,0,1.75,0,3,0a3,3,0,0,1,2.79,1.41A5.61,5.61,0,0,1,55,14.62,9.71,9.71,0,0,1,54.74,17.09Z" transform="translate(-0.36 -0.46)"/><path class="cls-1" d="M79.48,27.5V19.43a6.19,6.19,0,0,0-2-5.08,7.54,7.54,0,0,0-5-1.65,24.8,24.8,0,0,0-4.53.48,22,22,0,0,0-4.41,1.26A7.2,7.2,0,0,0,65,18.56a24.08,24.08,0,0,1,5.89-1.27q2.7,0,2.7,2.61v.87q-1.66-.12-3-.12a8.83,8.83,0,0,0-5.56,1.74,6.1,6.1,0,0,0-2.23,5.11,6.2,6.2,0,0,0,1.56,4.15A5.77,5.77,0,0,0,69,33.47a8,8,0,0,0,5.59-2.37,5,5,0,0,0,4.12,2.09,5.3,5.3,0,0,0,1.12-1.34,5.2,5.2,0,0,0,.74-1.7A3,3,0,0,1,79.48,27.5Zm-5.89.27a4.81,4.81,0,0,1-3.09,1.31,1.82,1.82,0,0,1-1.4-.57,2,2,0,0,1-.54-1.41,2.34,2.34,0,0,1,2.65-2.65c1,0,1.79,0,2.38,0Z" transform="translate(-0.36 -0.46)"/><path class="cls-1" d="M37.09,18.28c0-.11,0-.22,0-.32s0-.07,0-.11,0-.22,0-.33,0-.11,0-.16,0-.11,0-.16,0-.21,0-.32a16.19,16.19,0,0,0-.25-1.7A18.38,18.38,0,0,0,1,13.87l-.09.37c-.07.27-.14.56-.2.84a18.39,18.39,0,0,0,18,22.11,18.16,18.16,0,0,0,7.19-1.47H26l6,2.34.29.11,0,0h0c.61.19.81,0,.49-.56h0l0,0-.05-.08h0l0,0-.61-.82-2.31-3.09-.08-.11L27.9,31l-2-2.67-.77-1h0a2,2,0,0,0-1.66-.9h-.23l-.12,0h0l-.08,0a2,2,0,0,0-.63.26,10.36,10.36,0,0,1-2.65.83,9.28,9.28,0,0,1-1.06.06,8.93,8.93,0,0,1-6.16-2.45l-.15-.15c-.06-.05-.11-.11-.16-.16l-.15-.17a3.47,3.47,0,0,1-.25-.29,8.91,8.91,0,1,1,15.59-7.54s0,.07,0,.13,0,.13,0,.15a8.07,8.07,0,0,1,.14,1.48v.14a8.43,8.43,0,0,1-.16,1.6h0l3,.62a11.65,11.65,0,0,1-.66,2.2L27,22.05l-.06.17h0a9.05,9.05,0,0,1-.75,1.41h0v0a9.41,9.41,0,0,1-1,1.3h0a.08.08,0,0,1,0,0l2.17,2.15,0,0h0a11.61,11.61,0,0,0,1.44-1.77l2.74,1.85a15.33,15.33,0,0,1-1.83,2.26l.08.09s0,0,0,0l2.1,2.07h0l0,0a18.05,18.05,0,0,0,2.2-2.72L31.5,27.21a14.73,14.73,0,0,0,1.43-2.69l2.84,1.18a18.4,18.4,0,0,0,1-3.37,17.93,17.93,0,0,0,.32-2.65c0-.12,0-.25,0-.38s0-.32,0-.47,0-.23,0-.34Zm-3.32,3.43L30.53,21a12.56,12.56,0,0,0,.22-2.31v-.07h3.31v.09A15.37,15.37,0,0,1,33.77,21.71Z" transform="translate(-0.36 -0.46)"/><path class="cls-1" d="M100.67,13.62a7.92,7.92,0,0,0-3.27-.79,3.45,3.45,0,0,0-2.19.55c-.45.37-.57,1-.81,2L91.34,28.72c-.21,0-.33-.09-.35-.27q-.63-4.12-.95-5.26l-2-7.84a3.68,3.68,0,0,0-1-2,3.45,3.45,0,0,0-2.19-.56,8,8,0,0,0-3.27.79L86.28,30.7q.63,2.37,4,2.45l-.16.56q-1,3.43-4,3.44a12.8,12.8,0,0,1-3.48-.6,4.19,4.19,0,0,0-.89,1.78A7.44,7.44,0,0,0,81.42,40v.74a14.34,14.34,0,0,0,4.66.79q4.2,0,6.27-2.3a16.41,16.41,0,0,0,3.3-6.92Z" transform="translate(-0.36 -0.46)"/></g></svg>
