<svg id="Layer_1" data-name="Layer 1" xmlns="http://www.w3.org/2000/svg" width="20" height="18.67" viewBox="0 0 20 18.67"><defs><style>.cls-1{fill:#fff;}</style></defs><path class="cls-1" d="M13.48,5.38a2.23,2.23,0,0,0-1.35,3.25l1.35-1.35Z" transform="translate(0 -0.06)"/><path class="cls-1" d="M13.75,17.56H13l-.24-1.4H7.24L7,17.56H6.25a.59.59,0,0,0,0,1.18h7.5a.59.59,0,0,0,0-1.18Z" transform="translate(0 -0.06)"/><path class="cls-1" d="M13,9.46a2.23,2.23,0,0,0,3.25-1.35h-1.9Z" transform="translate(0 -0.06)"/><path class="cls-1" d="M14.65,5.38V6.94h1.56A2.21,2.21,0,0,0,14.65,5.38Z" transform="translate(0 -0.06)"/><path class="cls-1" d="M18.24.06H1.76A1.76,1.76,0,0,0,0,1.82V13.23A1.76,1.76,0,0,0,1.76,15H18.24A1.76,1.76,0,0,0,20,13.23V1.82A1.76,1.76,0,0,0,18.24.06ZM3.91,10.63a.31.31,0,0,1-.32.31H2.33A.31.31,0,0,1,2,10.63V7.78a.32.32,0,0,1,.32-.32H3.59a.32.32,0,0,1,.32.32Zm2.53,0a.31.31,0,0,1-.31.31H4.86a.31.31,0,0,1-.32-.31V4.29A.31.31,0,0,1,4.86,4H6.13a.31.31,0,0,1,.31.31Zm2.54,0a.32.32,0,0,1-.32.31H7.39a.31.31,0,0,1-.31-.31V5.88a.31.31,0,0,1,.31-.32H8.66A.32.32,0,0,1,9,5.88Zm5.08.29a3.4,3.4,0,1,1,3.4-3.4A3.4,3.4,0,0,1,14.06,10.92Z" transform="translate(0 -0.06)"/></svg>