<svg id="Layer_1" data-name="Layer 1" xmlns="http://www.w3.org/2000/svg" width="20" height="14.98" viewBox="0 0 20 14.98"><defs><style>.cls-1{fill:#fff;}</style></defs><path class="cls-1" d="M18.16.11H6.86a1.84,1.84,0,0,0,0,3.68h11.3a1.84,1.84,0,0,0,0-3.68Z" transform="translate(0 -0.11)"/><path class="cls-1" d="M1.84.11A1.84,1.84,0,1,0,3.68,2,1.85,1.85,0,0,0,1.84.11Z" transform="translate(0 -0.11)"/><path class="cls-1" d="M1.84,5.76A1.84,1.84,0,1,0,3.68,7.6,1.84,1.84,0,0,0,1.84,5.76Z" transform="translate(0 -0.11)"/><path class="cls-1" d="M1.84,11.41a1.84,1.84,0,1,0,1.84,1.84A1.84,1.84,0,0,0,1.84,11.41Z" transform="translate(0 -0.11)"/><path class="cls-1" d="M18.16,5.76H6.86a1.84,1.84,0,1,0,0,3.68h11.3a1.84,1.84,0,0,0,0-3.68Z" transform="translate(0 -0.11)"/><path class="cls-1" d="M18.16,11.41H6.86a1.84,1.84,0,0,0,0,3.68h11.3a1.84,1.84,0,0,0,0-3.68Z" transform="translate(0 -0.11)"/></svg>