<svg xmlns="http://www.w3.org/2000/svg" width="20" height="14.06" viewBox="0 0 20 14.06"><defs><style>.cls-1{fill:#fff;}</style></defs><g id="Capa_1" data-name="Capa 1"><path class="cls-1" d="M19.82,1.07l-6.06,6,6.06,6a1.77,1.77,0,0,0,.18-.76V1.83A1.77,1.77,0,0,0,19.82,1.07Z" transform="translate(0 -0.07)"/><path class="cls-1" d="M18.24.07H1.76A1.92,1.92,0,0,0,1,.24L8.76,8a1.76,1.76,0,0,0,2.48,0L19,.24A1.92,1.92,0,0,0,18.24.07Z" transform="translate(0 -0.07)"/><path class="cls-1" d="M.18,1.07A1.77,1.77,0,0,0,0,1.83V12.37a1.77,1.77,0,0,0,.18.76l6.06-6Z" transform="translate(0 -0.07)"/><path class="cls-1" d="M12.93,7.93l-.86.86a2.93,2.93,0,0,1-4.14,0l-.86-.86L1,14a1.92,1.92,0,0,0,.76.17H18.24A1.92,1.92,0,0,0,19,14Z" transform="translate(0 -0.07)"/></g></svg>