<svg id="Layer_1" data-name="Layer 1" xmlns="http://www.w3.org/2000/svg" width="20" height="19.17" viewBox="0 0 20 19.17"><defs><style>.cls-1{fill:#fff;}</style></defs><path class="cls-1" d="M7.29,14.69v3.87a.62.62,0,0,0,.43.59.69.69,0,0,0,.2,0,.63.63,0,0,0,.5-.25l2.26-3.08Z" transform="translate(0 -0.02)"/><defs><style>.cls-1{fill:#fff;}</style></defs><path class="cls-1" d="M19.74.13a.63.63,0,0,0-.65,0L.34,9.88a.62.62,0,0,0-.34.6A.65.65,0,0,0,.42,11l5.22,1.78,11.1-9.49L8.15,13.66l8.73,3a.69.69,0,0,0,.2,0,.63.63,0,0,0,.33-.09.62.62,0,0,0,.29-.44L20,.73A.62.62,0,0,0,19.74.13Z" transform="translate(0 -0.02)"/></svg>
