<svg xmlns="http://www.w3.org/2000/svg" width="20" height="18" viewBox="0 0 20 18"><defs><style>.cls-1{fill:#fff;}</style></defs><g id="magicoon-Filled"><g id="users-three-Filled"><path id="users-three-Filled-2" class="cls-1" d="M18.35,3.71a3.7,3.7,0,0,1-2.61,3.53A6,6,0,0,0,13.07.35,3.75,3.75,0,0,1,14.65,0a3.7,3.7,0,0,1,3.7,3.71ZM17.6,8.3a1.65,1.65,0,0,0-1.25.15A3.25,3.25,0,0,1,15,8.86a5.19,5.19,0,0,1-.7.85A5.41,5.41,0,0,1,17.92,14h.69a1.23,1.23,0,0,0,1.09-.63,2.55,2.55,0,0,0,.3-1.21v-.71A3.24,3.24,0,0,0,17.6,8.3ZM6.93.35A3.75,3.75,0,0,0,5.35,0,3.7,3.7,0,0,0,4.26,7.24,6,6,0,0,1,6.93.35ZM5.74,9.71A5.19,5.19,0,0,1,5,8.86a3.25,3.25,0,0,1-1.39-.41A1.65,1.65,0,0,0,2.4,8.3,3.24,3.24,0,0,0,0,11.45v.71a2.55,2.55,0,0,0,.3,1.21A1.24,1.24,0,0,0,1.38,14h.7A5.41,5.41,0,0,1,5.74,9.71Zm7.84,1.36a2.33,2.33,0,0,0-.53-.07,2,2,0,0,0-1,.26,4.25,4.25,0,0,1-4.12,0A2,2,0,0,0,7,11a2.33,2.33,0,0,0-.53.07A4,4,0,0,0,3.5,14.9v.87a3.1,3.1,0,0,0,.37,1.46A1.46,1.46,0,0,0,5.18,18h9.64a1.46,1.46,0,0,0,1.31-.77,3.1,3.1,0,0,0,.37-1.46V14.9a4,4,0,0,0-2.92-3.83ZM14.5,5.5A4.5,4.5,0,1,0,10,10,4.49,4.49,0,0,0,14.5,5.5Z" transform="translate(0 0)"/></g></g></svg>