<svg id="Layer_1" data-name="Layer 1" xmlns="http://www.w3.org/2000/svg" width="16.69" height="20" viewBox="0 0 16.69 20"><defs><style>.cls-1{fill:#fff;}</style></defs><path class="cls-1" d="M8.37,9.63a4.65,4.65,0,0,0,3.41-1.41,4.63,4.63,0,0,0,1.41-3.4,4.65,4.65,0,0,0-1.41-3.41A4.65,4.65,0,0,0,8.37,0,4.63,4.63,0,0,0,5,1.41,4.65,4.65,0,0,0,3.56,4.82,4.63,4.63,0,0,0,5,8.22,4.63,4.63,0,0,0,8.37,9.63Z" transform="translate(-0.16)"/><path class="cls-1" d="M16.8,15.38a10.1,10.1,0,0,0-.16-1.26,10.91,10.91,0,0,0-.31-1.28,6.83,6.83,0,0,0-.52-1.18,4.61,4.61,0,0,0-.79-1,3.69,3.69,0,0,0-1.13-.71,4,4,0,0,0-1.45-.26,1.45,1.45,0,0,0-.78.33l-.81.53A4.65,4.65,0,0,1,9.79,11a4.07,4.07,0,0,1-2.58,0,4.65,4.65,0,0,1-1.06-.46L5.34,10a1.45,1.45,0,0,0-.78-.33,4,4,0,0,0-1.45.26A3.69,3.69,0,0,0,2,10.63a4.61,4.61,0,0,0-.79,1,6.15,6.15,0,0,0-.52,1.18,9.22,9.22,0,0,0-.31,1.28A10.1,10.1,0,0,0,.2,15.38c0,.38,0,.78,0,1.18a3.33,3.33,0,0,0,1,2.51A3.53,3.53,0,0,0,3.68,20h9.64a3.53,3.53,0,0,0,2.54-.93,3.33,3.33,0,0,0,1-2.51C16.84,16.16,16.83,15.76,16.8,15.38Z" transform="translate(-0.16)"/></svg>