<svg xmlns="http://www.w3.org/2000/svg" width="20" height="18.67" viewBox="0 0 20 18.67"><defs><style>.cls-1{fill:#fff;}</style></defs><g id="Capa_1" data-name="Capa 1"><path class="cls-1" d="M4.67,3.71l8-2.18L12.22.68a1.11,1.11,0,0,0-1.5-.51L3.58,3.71Z" transform="translate(0 -0.05)"/><path class="cls-1" d="M15.12,1.59a1.35,1.35,0,0,0-.29,0L13,2.14,7.23,3.71h9.32L16.2,2.42A1.11,1.11,0,0,0,15.12,1.59Z" transform="translate(0 -0.05)"/><path class="cls-1" d="M17.72,4.49H1.13a1.13,1.13,0,0,0-.88.42A1.07,1.07,0,0,0,0,5.32a1.35,1.35,0,0,0,0,.29V18.13a1.12,1.12,0,0,0,1.12,1.12h16.6a1.13,1.13,0,0,0,1.13-1.12V15H12.18a1.91,1.91,0,0,1-1.91-1.91V10.59a1.91,1.91,0,0,1,.54-1.33A2,2,0,0,1,12,8.69h6.9V5.61A1.13,1.13,0,0,0,17.72,4.49Z" transform="translate(0 -0.05)"/><path class="cls-1" d="M19.63,9.75a1.09,1.09,0,0,0-.39-.23,1,1,0,0,0-.36-.06h-6.7a1.12,1.12,0,0,0-1.12,1.12v2.5a1.12,1.12,0,0,0,1.12,1.12h6.7a1,1,0,0,0,.36-.06A1.12,1.12,0,0,0,20,13.08v-2.5A1.11,1.11,0,0,0,19.63,9.75Zm-5.1,2.31a.56.56,0,0,1-.56.56h-.38a.56.56,0,0,1-.56-.56v-.38a.53.53,0,0,1,.22-.44.56.56,0,0,1,.34-.12H14a.56.56,0,0,1,.56.56v.38Z" transform="translate(0 -0.05)"/></g></svg>